<?xml version="1.0" encoding="UTF-8" standalone="no"?>
<!-- Created with Inkscape (http://www.inkscape.org/) -->

<svg
   xmlns:dc="http://purl.org/dc/elements/1.1/"
   xmlns:cc="http://creativecommons.org/ns#"
   xmlns:rdf="http://www.w3.org/1999/02/22-rdf-syntax-ns#"
   xmlns:svg="http://www.w3.org/2000/svg"
   xmlns="http://www.w3.org/2000/svg"
   xmlns:sodipodi="http://sodipodi.sourceforge.net/DTD/sodipodi-0.dtd"
   xmlns:inkscape="http://www.inkscape.org/namespaces/inkscape"
   width="256"
   height="145.12"
   id="svg2"
   version="1.1"
   inkscape:version="0.48.1 r9760"
   sodipodi:docname="Documento nuevo 1">
  <defs
     id="defs4" />
  <sodipodi:namedview
     id="base"
     pagecolor="#ffffff"
     bordercolor="#666666"
     borderopacity="1.0"
     inkscape:pageopacity="0.0"
     inkscape:pageshadow="2"
     inkscape:zoom="1.478355"
     inkscape:cx="115.5"
     inkscape:cy="92.987025"
     inkscape:document-units="px"
     inkscape:current-layer="layer1"
     showgrid="false"
     fit-margin-top="0"
     fit-margin-left="0"
     fit-margin-right="0"
     fit-margin-bottom="0"
     inkscape:window-width="1280"
     inkscape:window-height="713"
     inkscape:window-x="0"
     inkscape:window-y="0"
     inkscape:window-maximized="0" />
  <metadata
     id="metadata7">
    <rdf:RDF>
      <cc:Work
         rdf:about="">
        <dc:format>image/svg+xml</dc:format>
        <dc:type
           rdf:resource="http://purl.org/dc/dcmitype/StillImage" />
        <dc:title></dc:title>
      </cc:Work>
    </rdf:RDF>
  </metadata>
  <g
     inkscape:label="Capa 1"
     inkscape:groupmode="layer"
     id="layer1"
     transform="translate(-258.78571,-312.88508)">
    <path
       style="fill:#000000"
       d="m 435.66711,448.41119 c 0,-0.44018 2.43319,-3.31246 5.40709,-6.38284 2.9739,-3.07038 7.78289,-9.12273 10.68666,-13.44967 9.02755,-13.4521 14.57597,-21.49496 22.12394,-32.07037 4.00527,-5.61175 8.48642,-12.13675 9.9581,-14.5 1.47168,-2.36324 6.07796,-9.21552 10.23617,-15.2273 4.15821,-6.01177 7.39883,-11.09204 7.20139,-11.28948 -0.19745,-0.19745 -2.32872,0.68375 -4.73617,1.95823 -5.89264,3.11948 -12.49541,5.47527 -17.55199,6.26233 -3.48549,0.54252 -4.53693,0.28768 -6.36803,-1.54342 -1.20628,-1.20628 -2.47761,-1.79222 -2.82519,-1.3021 -1.37621,1.94058 -6.11185,4.28989 -7.54151,3.74128 -2.73861,-1.0509 -2.78544,-4.12721 -0.12695,-8.33853 2.50723,-3.97172 4.77503,-5.09889 6.06367,-3.01383 0.35487,0.57418 -0.10453,2.18823 -1.02089,3.58676 -2.44048,3.72464 -1.07951,4.06001 3.07888,0.75871 6.33682,-5.03074 7.29063,-5.58424 8.42006,-4.88622 0.76538,0.47303 0.59871,1.45229 -0.54399,3.19627 -2.27352,3.46984 -0.7239,4.71694 4.82687,3.88455 5.18405,-0.7774 17.68908,-6.54562 21.93417,-10.11763 2.9783,-2.50608 4.77772,-2.49501 4.77772,0.0294 0,0.75777 -2.025,4.33559 -4.5,7.9507 -2.475,3.6151 -4.5,7.08559 -4.5,7.71219 0,0.62659 -1.49634,2.59249 -3.32521,4.36866 -1.82886,1.77617 -4.75536,5.42163 -6.50333,8.10102 -1.74797,2.67939 -3.81824,5.77162 -4.60061,6.87162 -6.65181,9.35238 -24.55846,35.10419 -30.59562,44 -7.71249,11.36441 -15.96349,20.5 -18.51502,20.5 -0.80311,0 -1.46021,-0.36015 -1.46021,-0.80032 z m -162,-63.24238 c 0,-1.27049 7.03787,-10.91392 9.38937,-12.86548 0.93164,-0.7732 5.0595,-6.39766 9.17303,-12.49882 4.11352,-6.10115 8.81207,-12.893 10.4412,-15.093 4.98948,-6.73783 5.68009,-8.53789 3.70063,-9.64564 -2.54623,-1.42495 -2.07785,-5.6036 0.94179,-8.40211 4.7103,-4.36535 7.67289,-2.80229 3.67047,1.93653 l -2.62774,3.11122 2.65562,0.31642 c 3.68735,0.43936 3.34881,2.14444 -1.86559,9.396 -2.48667,3.45817 -5.91207,8.24192 -7.612,10.63055 l -3.09079,4.34297 6.31209,-4.59297 c 3.47165,-2.52613 6.89705,-4.59297 7.612,-4.59297 1.86105,0 1.56673,2.10205 -0.70008,5 -1.07554,1.375 -1.96553,2.84607 -1.97776,3.26905 -0.0511,1.7669 5.81666,-0.80246 10.28589,-4.50395 5.31259,-4.39998 7.07948,-4.24798 4.42309,0.3805 -2.24273,3.90774 -2.18255,4.8544 0.30862,4.8544 3.50084,0 10.04884,-3.98573 11.79242,-7.17798 2.1254,-3.89131 7.94295,-11.06277 9.87699,-12.17565 0.87474,-0.50333 1.90922,-0.4279 2.52094,0.18382 1.33275,1.33275 -2.83461,8.60814 -7.10725,12.40788 -3.08195,2.74083 -4.8344,6.80175 -3.71609,8.61121 1.17876,1.90728 4.72258,-0.18266 6.62159,-3.90502 1.91793,-3.75946 4.96753,-5.68282 7.00948,-4.42083 0.68873,0.42566 0.35589,1.83882 -0.95733,4.06455 -2.34328,3.97156 -1.12081,4.51842 4.08397,1.82692 3.89011,-2.01165 4.86547,-0.99182 4.14607,4.3351 -0.44583,3.30119 -0.9966,4.25 -2.46705,4.25 -1.06281,0 -2.28196,-1.02282 -2.77974,-2.33209 -0.95146,-2.50254 -0.57185,-2.50215 -14.82761,-0.0152 -4.04065,0.70489 -6.56712,-1.14141 -5.95361,-4.35079 l 0.44346,-2.31976 -4.489,2.50894 c -5.54799,3.10084 -11.23708,3.40714 -11.23708,0.60502 0,-1.86527 -0.10447,-1.86423 -5.14543,0.0512 -2.82998,1.07531 -5.75498,1.7212 -6.5,1.43531 -1.69875,-0.65186 -1.75712,-3.74502 -0.10457,-5.54119 0.6875,-0.74725 -0.59406,0.0831 -2.8479,1.84513 -5.20996,4.07318 -13.25812,13.17087 -19.44524,21.98102 -4.39975,6.26501 -6.4753,8.13248 -9.03865,8.13248 -0.50501,0 -0.91821,-0.46922 -0.91821,-1.0427 z m 127.4529,-20.03351 c -0.36583,-0.59192 0.64433,-2.72942 2.2448,-4.75 4.84235,-6.11347 10.3023,-19.04119 10.3023,-24.39314 0,-2.12689 -0.56673,-3.11609 -2,-3.4909 -2.72968,-0.71383 -2.51223,-2.1445 0.5,-3.28975 2.90975,-1.10629 6.94369,0.10788 7.80361,2.3488 0.76862,2.00301 -0.95505,8.01516 -4.05294,14.13664 -1.38764,2.74199 -1.89921,4.48664 -1.13682,3.87699 4.74908,-3.79768 17.94366,-13.30138 20.88615,-15.04374 7.21039,-4.26954 20.05985,-7.0707 25.43227,-5.54419 3.8672,1.09881 6.99787,5.2949 6.0884,8.16037 -0.83372,2.62683 -2.90163,2.21331 -3.3274,-0.66538 -0.44865,-3.03333 -5.23897,-4.6338 -12.02704,-4.01828 -11.56659,1.04882 -25.5948,10.00239 -42.30097,26.99879 -3.6491,3.7125 -6.88504,6.75 -7.19098,6.75 -0.30593,0 -0.85556,-0.4843 -1.22138,-1.07621 z m 22.11568,-2.24999 c -2.8807,-2.10641 -0.30572,-7.08842 5.64624,-10.92421 3.55357,-2.29013 5.78518,-2.22154 5.78518,0.17783 0,2.1254 -4.71655,6.36579 -6.11754,5.49994 -0.48535,-0.29997 -0.88246,0.15616 -0.88246,1.01362 0,1.17053 1.07246,1.55902 4.30383,1.55902 3.56299,0 4.82911,-0.55944 7.35535,-3.25 1.67834,-1.7875 3.32749,-4.0375 3.66478,-5 0.66689,-1.90299 3.18405,-2.35507 4.17604,-0.75 0.33992,0.55 2.61648,1 5.05902,1 3.20003,0 4.44098,0.40265 4.44098,1.44098 0,0.79254 -0.45,1.7191 -1,2.05902 -1.85844,1.14858 -1.01569,2.5 1.55902,2.5 3.06677,0 2.42554,1.4395 -1.55909,3.50003 -4.21417,2.17924 -6.34237,0.99758 -5.66963,-3.14801 0.51597,-3.17957 0.3894,-3.35202 -2.46032,-3.35202 -2.119,0 -3.94564,0.99812 -6.19882,3.38719 -4.65158,4.93212 -14.14536,7.1802 -18.10258,4.28661 z"
       id="path3050"
       inkscape:connector-curvature="0" />
  </g>
</svg>
